# xmcd
#
# Track frame offsets:
# 150
# 12980
# 26112
# 41780
# 53905
# 72992
# 86420
# 97660
# 112007
# 126520
# 140057
# 154667
# 173152
# 184792
# 195647
# 208372
#
# Disc length: 2983 seconds
#
#
# Revision: 3
# Processed by: cddbd v1.5.1PL0 Copyright (c) Steve Scherf et al.
# Submitted via: FreeRIP 2.30 
#
DISCID=e90ba510
DTITLE=Don Williams - The Very Best of Don Williams
DYEAR=1980
DGENRE=Country
TTITLE0=You're My Best Friend
TTITLE1=Lay Down Beside Me
TTITLE2=Till The Rivers All Run Dry
TTITLE3=Ghost Story
TTITLE4=Good Ole Boys Like Me
TTITLE5=Love Me Over Again
TTITLE6=It Must Be Love
TTITLE7=Amanda
TTITLE8=Tulsa Time
TTITLE9=The Shelter Of Your Eyes
TTITLE10=She's In Love With A Rodeo Man
TTITLE11=I Believe In You
TTITLE12=Time On My Hands
TTITLE13=Turn Down The Lights (And Love Me Tonight)
TTITLE14=Some Broken Hearts Never Mend
TTITLE15=I Recall A Gypsy Woman
EXTD=(c)1980 MCA/Record Service Germany\nKatalog: MCA 2524322\nmedia markt 35DM
EXTT0=
EXTT1=
EXTT2=
EXTT3=
EXTT4=
EXTT5=
EXTT6=
EXTT7=
EXTT8=
EXTT9=
EXTT10=
EXTT11=
EXTT12=
EXTT13=
EXTT14=
EXTT15=
PLAYORDER=
